<svg xmlns="http://www.w3.org/2000/svg" width="400" height="300" viewBox="0 0 400 300"><rect width="100%" height="100%" fill="#1a3a5c"/><path fill="#ffffff" d="M105.755 145.44h14.64v17.84q-3.35 2.47-7.15 3.61-3.8 1.15-8.13 1.15-5.4 0-9.77-1.68-4.38-1.68-7.48-4.67-3.09-2.99-4.77-7.13-1.68-4.15-1.68-9.06 0-4.97 1.62-9.12t4.59-7.14 7.21-4.63q4.24-1.65 9.52-1.65 2.68 0 5.02.43 2.33.42 4.33 1.17t3.64 1.82q1.65 1.06 3.02 2.34l-2.35 3.72q-.55.89-1.43 1.09t-1.92-.44q-1.01-.58-2.01-1.16-1.01-.58-2.25-1.01-1.23-.43-2.77-.7-1.54-.28-3.56-.28-3.26 0-5.9 1.1-2.63 1.1-4.5 3.14-1.86 2.05-2.86 4.91-1.01 2.87-1.01 6.41 0 3.78 1.08 6.75 1.09 2.98 3.05 5.04 1.97 2.06 4.75 3.14 2.77 1.08 6.19 1.08 2.44 0 4.36-.52t3.75-1.4v-7.99h-5.55q-.79 0-1.24-.44-.44-.45-.44-1.09zm37.91 14.03v-5.28q-3.26.15-5.49.57-2.22.41-3.56 1.05-1.35.64-1.93 1.49-.58.86-.58 1.86 0 1.98 1.18 2.84 1.17.85 3.06.85 2.32 0 4.01-.84 1.7-.83 3.31-2.54m-15.92-16.44-1.34-2.41q5.4-4.94 12.99-4.94 2.75 0 4.91.9 2.17.9 3.66 2.5 1.5 1.6 2.28 3.83.77 2.22.77 4.88v19.76h-3.41q-1.07 0-1.65-.32t-.91-1.3l-.67-2.25q-1.19 1.06-2.32 1.87t-2.35 1.36-2.61.84-3.06.29q-1.99 0-3.66-.54-1.68-.53-2.9-1.6-1.22-1.06-1.89-2.65t-.67-3.69q0-1.19.39-2.36.4-1.18 1.3-2.25.9-1.06 2.33-2.01 1.44-.94 3.53-1.65 2.08-.7 4.86-1.14t6.34-.53v-1.83q0-3.15-1.34-4.66t-3.87-1.51q-1.83 0-3.04.43-1.2.43-2.12.96-.91.54-1.66.96-.75.43-1.66.43-.79 0-1.34-.41t-.89-.96m30.44-20.8h7.54v45.32h-7.54zm15.16 0h7.53v45.32h-7.53zm21.01 26.07h14.22q0-1.46-.41-2.76-.42-1.29-1.24-2.27-.82-.97-2.09-1.54-1.26-.56-2.94-.56-3.27 0-5.14 1.86-1.88 1.86-2.4 5.27m19.22 4.55h-19.37q.19 2.41.86 4.16.67 1.76 1.77 2.9 1.09 1.14 2.6 1.71 1.51.56 3.34.56t3.16-.42q1.33-.43 2.32-.95t1.74-.95q.74-.42 1.44-.42.95 0 1.41.7l2.16 2.74q-1.25 1.47-2.8 2.46-1.56.99-3.25 1.58-1.69.6-3.45.84-1.75.25-3.4.25-3.26 0-6.07-1.09-2.8-1.08-4.88-3.2-2.07-2.12-3.26-5.24-1.19-3.13-1.19-7.25 0-3.2 1.04-6.02 1.03-2.82 2.97-4.91t4.73-3.31 6.3-1.22q2.95 0 5.46.94 2.5.95 4.3 2.76 1.8 1.82 2.82 4.46t1.02 6.02q0 1.71-.37 2.3-.36.6-1.4.6m14.06-14.7.46 3.54q1.46-2.81 3.47-4.41 2.02-1.6 4.76-1.6 2.17 0 3.48.94l-.49 5.65q-.15.54-.44.77t-.78.23q-.46 0-1.36-.15t-1.75-.15q-1.25 0-2.23.36-.97.37-1.75 1.06-.78.68-1.37 1.66-.6.97-1.12 2.22v19.28h-7.53v-31.29h4.42q1.16 0 1.62.41t.61 1.48m38.49-1.89h6.04l-17.05 39.89q-.33.79-.87 1.21-.53.41-1.63.41h-5.61l5.85-12.57-12.65-28.94h6.61q.89 0 1.39.42.51.43.75.98l6.65 16.23q.33.82.56 1.64.23.83.45 1.68.27-.85.54-1.69.28-.84.61-1.66l6.29-16.2q.24-.61.81-1.01.56-.39 1.26-.39m44.53 25.65h7.93v5.64h-24.4v-5.64h8.94V136.2q0-1.53.09-3.15l-6.34 5.31q-.55.43-1.09.54-.53.1-1 .01-.48-.09-.84-.32-.37-.23-.55-.5l-2.38-3.27 13.45-11.43h6.19z"/></svg>